<?xml version="1.0" encoding="utf-8"?>
<!-- Generator: Adobe Illustrator 24.0.1, SVG Export Plug-In . SVG Version: 6.00 Build 0)  -->
<svg version="1.1" id="ico" xmlns="http://www.w3.org/2000/svg" xmlns:xlink="http://www.w3.org/1999/xlink" x="0px" y="0px"
	 width="50px" height="50px" viewBox="0 0 50 50" fill="red">
<path  d="M31.396,13.448c-2.831,0-5.277,1.678-6.396,4.092c-1.119-2.414-3.565-4.092-6.396-4.092c-3.886,0-7.048,3.161-7.048,7.047
	c0,1.646,0.581,3.248,1.649,4.527c0.264,0.314,0.557,0.607,0.829,0.833L24.54,36.361c0.127,0.127,0.294,0.19,0.46,0.19
	s0.333-0.063,0.46-0.19l10.464-10.468c0.314-0.264,0.607-0.557,0.883-0.884c1.056-1.266,1.638-2.868,1.638-4.515
	C38.444,16.609,35.282,13.448,31.396,13.448z M35.799,24.187c-0.215,0.257-0.454,0.496-0.753,0.749L25,34.982L14.912,24.897
	c-0.257-0.215-0.496-0.454-0.721-0.721c-0.861-1.032-1.335-2.34-1.335-3.682c0-3.169,2.578-5.746,5.747-5.746
	s5.746,2.577,5.746,5.746c0,0.359,0.291,0.65,0.65,0.65s0.65-0.291,0.65-0.65c0-3.169,2.577-5.746,5.746-5.746
	s5.747,2.577,5.747,5.746C37.144,21.837,36.67,23.145,35.799,24.187z"/>
</svg>
